<svg width="1920.183" height="159" xmlns="http://www.w3.org/2000/svg">
 <defs>
  <clipPath id="clip-path">
   <path fill="url(#linear-gradient)" d="m389.058,651.558s95.269,204.193 401.21,161.147s419.656,-32.1 544.188,96.892s343.977,107.54 572.909,67.066s360.19,68.158 401.79,142.968c0.041,-2.4 -0.074,-1075.621 -0.074,-1075.621l-1920,0.011l-0.023,607.537z" id="Path_199"/>
  </clipPath>
  <linearGradient gradientUnits="objectBoundingBox" y2="1" x2="0.5" x1="0.5" id="linear-gradient">
   <stop stop-color="#361cc1" offset="0"/>
   <stop stop-color="#2e82ef" offset="1"/>
  </linearGradient>
 </defs>
 <g>
  <title>background</title>
  <rect fill="none" id="canvas_background" height="161" width="1922.183" y="-1" x="-1"/>
 </g>
 <g>
  <title>Layer 1</title>
  <g id="Group_112">
   <path fill="url(#linear-gradient)" opacity="0.11" d="m0,607.406s100.43,239.944 401.206,191.477s442.068,9.577 537.63,114.941s352.091,94.329 580.987,52.374s363.166,41.794 400.36,109.438c0.016,0.016 -0.373,-1075.609 -0.373,-1075.609l-1919.766,-0.027l-0.044,607.406z" id="Path_195"/>
   <path fill="url(#linear-gradient)" d="m0.058,607.558s95.269,204.193 401.21,161.147s419.656,-32.1 544.188,96.892s343.977,107.54 572.909,67.066s360.19,68.158 401.79,142.968c0.041,-2.4 -0.074,-1075.621 -0.074,-1075.621l-1920,0.011l-0.023,607.537z" id="Path_194"/>
   <g clip-path="url(#clip-path)" id="Mask_Group_6">
    <path opacity="0.14" stroke-width="128" stroke="#361cc1" fill="none" d="m25.721,687.742985s174.242,-392.046 817.433,-255.032s869.415,77.467 1056.161,-463.982" id="Path_4"/>
   </g>
  </g>
 </g>
</svg>